<?xml version="1.0" encoding="utf-8"?>
<!-- Generator: Adobe Illustrator 23.0.1, SVG Export Plug-In . SVG Version: 6.00 Build 0)  -->
<svg version="1.1" id="Layer_1" xmlns="http://www.w3.org/2000/svg" xmlns:xlink="http://www.w3.org/1999/xlink" x="0px" y="0px"
	 viewBox="0 0 612 792" style="enable-background:new 0 0 612 792;" xml:space="preserve">
<style type="text/css">
	.st0{fill:#FFFFFF;}
</style>
<g id="qdyKUd.tif">
	<g>
		<path class="st0" d="M336.27,86.67c0.02,0.27-0.18,0.42-0.3,0.6c-11.66,16.62-23.31,33.23-34.97,49.85
			c-3.99,5.69-7.99,11.38-11.98,17.07c-0.12,0.16-0.24,0.32-0.39,0.52c-1.34-2.13-2.66-4.23-3.97-6.32
			c-16.86-26.87-33.72-54.74-50.59-81.6c-0.36-0.57-0.25-0.76,0.22-1.08c4.44-3.13,9.11-5.63,14.26-6.91
			c6.88-1.71,13.52-0.78,19.94,2.38c4.98,2.45,9.42,6.89,13.68,10.63c3.97,3.48,7.74,7.23,11.63,10.82c0.27,0.24,0.55,0.47,0.82,0.7
			c0.99,1.02,2.07,1.92,3.14,2.83c3.41,2.92,6.95,5.6,10.93,7.48c4.89,2.3,9.89,2.88,15.02,1.18c4.1-1.35,7.65-3.82,10.97-6.79
			C335.2,87.57,335.63,86.97,336.27,86.67z"/>
	</g>
</g>
<g>
	<circle class="st0" cx="329.18" cy="66.16" r="9.99"/>
	<path class="st0" d="M324.56,75.01c0,0,8.09,0.31,6.56,6.11c-1.53,5.8-1.53,5.8-1.53,5.8s13.5-11.36,8.43-23.4
		S324.56,75.01,324.56,75.01z"/>
</g>
</svg>
